# xmcd CD database file
#
# Track frame offsets:
#	150
#	32049
#	56356
#	85450
#	125046
#	169741
#	192335
#	217939
#	249585
#	273439
#	311511
#	332787
#
# Disc length: 4761 seconds
#
# Revision: 0
# Processed by: cddbd v1.5.2PL0 Copyright (c) Steve Scherf et al.
# Submitted via: CDex 1.99.1
#
DISCID=ac12970c
DTITLE=Turrentine, Stanley (1934-2000) - Stanley Turrentine 1960 - Blue Hour (The Complete Sessions)
DYEAR=1960
DGENRE=Jazz
TTITLE0=I Want A Little Girl
TTITLE1=Gee Baby, Ain't I Good To You
TTITLE2=Blue Riff
TTITLE3=Since I Feel For You
TTITLE4=Willow Weep For Me
TTITLE5=Blues In The Closed
TTITLE6=Just In Time
TTITLE7=Where Or When
TTITLE8=Blue Hour
TTITLE9=There Is No Greater Love
TTITLE10=Alone Together
TTITLE11=Strike Up The Band
EXTD=YEAR: 1960
EXTT0=
EXTT1=
EXTT2=
EXTT3=
EXTT4=
EXTT5=
EXTT6=
EXTT7=
EXTT8=
EXTT9=
EXTT10=
EXTT11=
PLAYORDER=
